PathFileType	4	(X/Y/Z)	/Volumes/GoogleDrive/My Drive/Research/Stanford/Projects/Digital Athlete Project/Sprinting/Sprint Simulation/sprinter/subjects/JA1/experimental_data/TRC/static.trc
DataRate	CameraRate	NumFrames	NumMarkers	Units	OrigDataRate	OrigDataStartFrame	OrigNumFrames
250.000000	250.000000	5	57	mm	250.000000	324	646
Frame#	Time	C7			RSH			LSH			MAN			T7			LARM			LELB			LFOREARM			LWR			RARM			RELB			RFOREARM			RWR			RASI			LASI			SACR			P1			P2			P3			LTHLP			LTHLD			LTHAP			LTHAD			LLEPI			LPAT			LMEPI			LTIAP			LTIAD			LTILAT			LLMAL			LMMAL			LHEEL			LMFS			LMFL			LP1MT			LTOE			LP5MT			RTHLP			RTHLD			RTHAP			RTHAD			RLEPI			RPAT			RMEPI			RTIAP			RTIAD			RTILAT			RLMAL			RMMAL			RHEEL			RMFS			RMFL			RP1MT			RTOE			RP5MT			x56			x57			
		X1	Y1	Z1	X2	Y2	Z2	X3	Y3	Z3	X4	Y4	Z4	X5	Y5	Z5	X6	Y6	Z6	X7	Y7	Z7	X8	Y8	Z8	X9	Y9	Z9	X10	Y10	Z10	X11	Y11	Z11	X12	Y12	Z12	X13	Y13	Z13	X14	Y14	Z14	X15	Y15	Z15	X16	Y16	Z16	X17	Y17	Z17	X18	Y18	Z18	X19	Y19	Z19	X20	Y20	Z20	X21	Y21	Z21	X22	Y22	Z22	X23	Y23	Z23	X24	Y24	Z24	X25	Y25	Z25	X26	Y26	Z26	X27	Y27	Z27	X28	Y28	Z28	X29	Y29	Z29	X30	Y30	Z30	X31	Y31	Z31	X32	Y32	Z32	X33	Y33	Z33	X34	Y34	Z34	X35	Y35	Z35	X36	Y36	Z36	X37	Y37	Z37	X38	Y38	Z38	X39	Y39	Z39	X40	Y40	Z40	X41	Y41	Z41	X42	Y42	Z42	X43	Y43	Z43	X44	Y44	Z44	X45	Y45	Z45	X46	Y46	Z46	X47	Y47	Z47	X48	Y48	Z48	X49	Y49	Z49	X50	Y50	Z50	X51	Y51	Z51	X52	Y52	Z52	X53	Y53	Z53	X54	Y54	Z54	X55	Y55	Z55	X56	Y56	Z56	X57	Y57	Z57	
324	1.296000	-696.075806	1569.278076	311.933624	-651.490906	1558.768433	475.801514	-688.232361	1553.700439	156.256088	-539.781738	1483.575928	308.438873	-747.614014	1373.982666	319.155060	-708.981140	1375.384155	40.047577	-728.379211	1250.540283	-16.245543	-682.369568	1142.426147	-103.034180	-661.683716	1018.242859	-164.044327	-670.430420	1389.634644	587.543030	-700.161865	1265.147217	652.506165	-658.196289	1155.569214	736.952393	-640.206543	1033.726074	800.958130	-533.588867	1087.010498	400.627106	-559.837708	1091.404663	185.262161	-730.554810	1134.398438	319.034454	-751.597595	1108.630859	267.900055	-736.572144	1103.876221	373.077881	-775.575134	1050.548706	321.313629	-669.371643	798.798767	106.545753	-665.407837	684.728943	112.671059	-536.151978	784.042908	172.209641	-556.820740	674.945740	179.111618	-659.796448	559.078491	122.790085	-579.990906	560.738708	184.435638	-660.474060	541.864624	248.590057	-644.106506	381.625092	188.381516	-660.042725	243.761139	181.505402	-695.344971	320.872742	108.343422	-701.877441	102.562080	121.626472	-680.801941	112.898399	214.494888	-765.631470	60.903149	166.184418	-600.630249	94.641441	169.547409	-628.697144	69.731041	107.138466	-553.323547	46.459480	202.727493	-497.914307	58.786545	164.139313	-576.734192	36.010475	78.637192	-632.643066	825.432434	514.266907	-635.534180	711.724731	509.216431	-528.927002	782.998718	423.957825	-549.618469	686.575928	420.336761	-652.504700	559.800354	489.770996	-584.474121	550.921082	426.439117	-685.382324	543.854980	366.829437	-658.387573	343.984558	419.921295	-673.239563	217.906570	414.518585	-693.839722	338.615112	506.770355	-695.298767	102.978378	482.035492	-684.667725	112.800804	388.101685	-765.386353	59.407196	441.576660	-592.514404	98.019569	432.184784	-629.295715	69.754066	491.261932	-554.356934	49.110447	388.683411	-494.021851	59.150055	426.230499	-569.796448	40.732334	515.965942	-651.170105	955.126648	-195.052734	-630.146057	965.587036	836.752380
325	1.300000	-696.121338	1569.341919	311.990845	-651.456970	1558.758789	475.755066	-688.129089	1553.666016	156.172974	-539.774048	1483.661987	308.505554	-747.524841	1373.946899	319.125977	-708.872314	1375.392822	39.979092	-728.334473	1250.459717	-16.229891	-682.132996	1142.364624	-103.246620	-661.526184	1018.222290	-164.159317	-670.442932	1389.624878	587.459290	-700.184814	1265.119751	652.415344	-658.104004	1155.583374	736.981628	-640.216309	1033.701660	800.882812	-533.627075	1086.998779	400.586304	-559.762207	1091.363403	185.196472	-730.496216	1134.389526	319.014679	-751.546570	1108.613159	267.896484	-736.549316	1103.961182	372.991211	-775.469543	1050.554688	321.170105	-669.357910	798.804016	106.527672	-665.366455	684.714294	112.682877	-536.135864	784.026001	172.167755	-556.756226	674.965149	178.982590	-659.726807	559.074463	122.684166	-579.957092	560.726318	184.387527	-660.507202	541.869263	248.564468	-644.081055	381.639313	188.369553	-660.003113	243.750259	181.272263	-695.335083	320.949951	108.331810	-701.870300	102.580528	121.644760	-680.732483	112.885323	214.442429	-765.623047	60.892357	166.084854	-600.639893	94.652527	169.584015	-628.683777	69.693771	107.111893	-553.338013	46.461731	202.686996	-497.953644	58.764420	164.188400	-576.736938	36.053822	78.674164	-632.647034	825.442810	514.259766	-635.490417	711.734741	509.260376	-528.933228	782.982910	423.901764	-549.602661	686.557007	420.367584	-652.539001	559.779175	489.728424	-584.506775	550.935669	426.346100	-685.367798	543.855225	366.815430	-658.320435	343.972870	419.892456	-673.293701	217.933228	414.494476	-693.911560	338.583923	506.692200	-695.143982	103.088387	482.173126	-684.391479	112.791725	387.936646	-765.458435	59.280811	441.581573	-592.577637	98.008789	432.036255	-629.316467	69.705833	491.250214	-554.389893	49.070805	388.751526	-494.065613	59.101452	426.174530	-569.827454	40.717052	515.927307	-651.052795	955.126892	-195.118195	-630.212891	965.541138	836.618591
326	1.304000	-696.083191	1569.393677	311.999725	-651.424438	1558.766113	475.716461	-688.088257	1553.655884	156.159576	-539.712708	1483.572266	308.344757	-747.474426	1373.919189	319.074951	-708.820496	1375.399414	39.927456	-728.233948	1250.592041	-16.491409	-682.014099	1142.412476	-103.339104	-661.424561	1018.299194	-164.201904	-670.426453	1389.664062	587.385559	-700.194824	1265.117676	652.337524	-658.070557	1155.571777	737.003418	-640.190491	1033.675171	800.864868	-533.593811	1086.993164	400.542389	-559.713074	1091.307861	185.025986	-730.481628	1134.411743	318.883240	-751.414917	1108.569702	267.785828	-741.800537	1104.656250	373.483398	-775.423645	1050.547241	321.147217	-669.314758	798.777710	106.476204	-665.305420	684.726074	112.613510	-536.086365	783.993469	172.134506	-556.774170	675.003784	179.084641	-659.740112	559.067383	122.671127	-579.928833	560.690552	184.396835	-660.200500	541.846680	248.605255	-644.055115	381.658813	188.317688	-660.008362	243.740448	181.291855	-695.313843	320.896912	108.296288	-701.850342	102.583351	121.643532	-680.737488	112.928566	214.550003	-765.613281	60.880131	166.056732	-600.551392	94.724930	169.333389	-628.683594	69.717888	107.147652	-553.425781	46.449528	202.699387	-497.959961	58.796585	164.156143	-576.698853	36.035431	78.618683	-632.660706	825.438110	514.232239	-635.518677	711.735291	509.243774	-528.937683	782.977844	423.940765	-549.580811	686.557556	420.321350	-652.504761	559.796265	489.768829	-584.458496	550.939575	426.432495	-685.373230	543.919800	366.748474	-658.284729	343.979340	419.873138	-673.222534	217.957840	414.489075	-693.924744	338.600555	506.688751	-695.162231	103.076790	482.161682	-684.210510	112.846519	387.736298	-765.424622	59.223404	441.581635	-592.588501	98.006920	432.088989	-629.301758	69.683464	491.263733	-554.335693	49.117542	388.709229	-494.104065	59.015694	426.165955	-569.846741	40.711445	515.921814	-650.959900	955.218567	-195.135422	-630.191284	965.506348	836.578430
327	1.308000	-696.043152	1569.365723	311.808899	-651.388489	1558.771973	475.668030	-688.038818	1553.647949	156.100723	-539.708313	1483.662231	308.421417	-747.431030	1373.894653	318.910675	-708.761963	1375.441162	39.877804	-728.198242	1250.528564	-16.417629	-682.056763	1142.434814	-103.223587	-661.385315	1018.313843	-164.220764	-670.437195	1389.615601	587.382385	-700.287109	1265.073975	652.231262	-658.133301	1155.555298	736.904114	-640.247620	1033.666504	800.730469	-533.561279	1086.977539	400.564728	-559.689697	1091.339844	185.187164	-730.405273	1134.416382	318.747345	-751.515381	1108.636475	267.601990	-741.961975	1104.657593	373.734711	-775.430908	1050.605591	320.979858	-669.281372	798.802979	106.447311	-665.274475	684.746033	112.640533	-536.054993	783.985901	172.160294	-556.726868	675.003479	179.058380	-659.696655	559.142151	122.684166	-579.910950	560.705627	184.406250	-660.419800	541.898865	248.475067	-644.072693	381.631348	188.327927	-659.970276	243.753250	181.355972	-695.324463	320.932068	108.334457	-701.882813	102.504295	121.644028	-680.686523	112.938873	214.506760	-765.601501	60.943878	166.059189	-600.504517	94.766296	169.457855	-628.700195	69.667404	107.103683	-553.273865	46.390697	202.789978	-497.960083	58.796207	164.231537	-576.729126	35.973286	78.712738	-632.707275	825.458374	514.172424	-635.543213	711.762268	509.231415	-528.945557	782.954285	423.873627	-549.619873	686.551697	420.274567	-652.576538	559.741516	489.665283	-584.510132	550.951416	426.324707	-685.356873	543.934448	366.746002	-658.296814	343.983032	419.862152	-673.284180	217.903198	414.502197	-693.963257	338.622711	506.641113	-695.130188	103.061485	482.192108	-684.427002	112.795082	387.979889	-765.453674	59.270187	441.552979	-592.563232	98.007668	432.072723	-629.311768	69.749565	491.224426	-554.406311	49.145512	388.810181	-494.096954	59.076084	426.123383	-569.859619	40.706676	515.909241	-650.879028	955.229309	-195.222580	-630.245361	965.501892	836.424438
328	1.312000	-695.976929	1569.313110	311.880951	-651.361511	1558.747559	475.625885	-687.939331	1553.632690	156.008057	-539.674133	1483.680908	308.386047	-747.395691	1373.869873	318.914215	-708.685974	1375.450073	39.792503	-728.060547	1250.648804	-16.792776	-681.849792	1142.425659	-103.415573	-661.207581	1018.287537	-164.362335	-670.383850	1389.634644	587.344849	-700.255249	1265.076172	652.191956	-658.110840	1155.534546	736.775269	-640.235779	1033.629150	800.650208	-533.565186	1086.966309	400.486023	-559.530762	1091.296875	184.959122	-730.395996	1134.401123	318.718048	-751.375977	1108.534058	267.648041	-741.780823	1104.686768	373.558136	-775.399109	1050.570801	320.949005	-669.193176	798.780457	106.394386	-665.244080	684.753357	112.538940	-536.023621	783.970154	172.141953	-556.672180	674.982300	178.920425	-659.653625	559.052551	122.627266	-579.864319	560.679382	184.353622	-660.259216	541.857727	248.594681	-644.104309	381.660370	188.361740	-660.002197	243.804977	181.302185	-695.304626	320.954834	108.286194	-701.919434	102.485947	121.610931	-680.680664	112.982666	214.577698	-765.622131	60.854897	166.122528	-600.626587	94.673988	169.519272	-628.682312	69.703217	107.103630	-553.420959	46.425964	202.636948	-497.970459	58.781311	164.204681	-576.809082	35.997028	78.686958	-632.740967	825.446045	514.171997	-635.567505	711.744263	509.200073	-528.891907	782.934143	423.716919	-549.566956	686.561279	420.385132	-652.554077	559.741272	489.757233	-584.455994	550.943909	426.398346	-685.326843	543.841248	366.710938	-658.295654	343.971893	419.867096	-673.266113	217.939896	414.471008	-693.928345	338.638397	506.691071	-695.071960	103.079353	482.202545	-684.456482	112.787971	388.021637	-765.339600	59.223354	441.447968	-592.568604	98.012489	432.102112	-629.335327	69.696106	491.224670	-554.422485	49.068840	388.730621	-494.038452	59.111061	426.215088	-569.813354	40.691093	515.939819	-650.716187	955.194336	-195.338531	-630.239441	965.455261	836.371338
